<svg xmlns="http://www.w3.org/2000/svg" width="512" height="512" viewBox="0 0 512 512">
  <g id="Documents" transform="translate(42 -60)">
    <g id="folder-open-svgrepo-com" transform="translate(-42 60)">
      <rect id="Rectangle_1" data-name="Rectangle 1" width="512" height="512" fill="#fff"/>
      <path id="Path_1" data-name="Path 1" d="M387.109,110.7V68.018a21.339,21.339,0,0,0-21.339-21.339H152.376L131.036,4H24.339L7.506,37.667A42.678,42.678,0,0,0,3,56.754V110.7" transform="translate(61.018 81.358)" fill="#5f8bb6"/>
      <path id="Path_2" data-name="Path 2" d="M40.9,243.733H386.03a21.339,21.339,0,0,0,21.252-19.408l17.46-192.054A21.34,21.34,0,0,0,403.49,9H23.436A21.339,21.339,0,0,0,2.184,32.271L19.644,224.325A21.34,21.34,0,0,0,40.9,243.733Z" transform="translate(42.61 183.054)" fill="#70b2e8"/>
    </g>
    <path id="file-svgrepo-com" d="M103.033,46.452v63.73c0,8.112,0,12.168-1.527,15.266a14.251,14.251,0,0,1-6.12,6.33c-3,1.579-6.918,1.579-14.761,1.579H27.407c-7.843,0-11.765,0-14.761-1.579a14.252,14.252,0,0,1-6.12-6.33C5,122.35,5,118.294,5,110.182V26.175c0-8.112,0-12.168,1.526-15.266a14.253,14.253,0,0,1,6.12-6.33C15.642,3,19.564,3,27.407,3H61.019m42.014,43.452L61.019,3m42.014,43.452H68.021a7.125,7.125,0,0,1-7-7.242V3" transform="translate(159.984 305.98)" fill="none" stroke="#fff" stroke-linecap="round" stroke-linejoin="round" stroke-width="2"/>
  </g>
</svg>
