<svg xmlns="http://www.w3.org/2000/svg" width="512" height="512" viewBox="0 0 512 512">
  <g id="Download" transform="translate(42 -60)">
    <g id="folder-open-svgrepo-com" transform="translate(-42 60)">
      <rect id="Rectangle_1" data-name="Rectangle 1" width="512" height="512" fill="#fff"/>
      <path id="Path_1" data-name="Path 1" d="M387.109,110.7V68.018a21.339,21.339,0,0,0-21.339-21.339H152.376L131.036,4H24.339L7.506,37.667A42.678,42.678,0,0,0,3,56.754V110.7" transform="translate(61.018 81.358)" fill="#5f8bb6"/>
      <path id="Path_2" data-name="Path 2" d="M40.9,243.733H386.03a21.339,21.339,0,0,0,21.252-19.408l17.46-192.054A21.34,21.34,0,0,0,403.49,9H23.436A21.339,21.339,0,0,0,2.184,32.271L19.644,224.325A21.34,21.34,0,0,0,40.9,243.733Z" transform="translate(42.61 183.054)" fill="#70b2e8"/>
    </g>
    <path id="download-03-svgrepo-com" d="M40.542,66.236,66.236,91.931m0,0L91.931,66.236M66.236,91.931V40.542m64.236,25.695A64.236,64.236,0,1,1,66.236,2,64.237,64.237,0,0,1,130.473,66.236Z" transform="translate(146.764 302.027)" fill="none" stroke="#fff" stroke-linecap="round" stroke-linejoin="round" stroke-width="2"/>
  </g>
</svg>
