<svg xmlns="http://www.w3.org/2000/svg" width="512" height="512" viewBox="0 0 512 512">
  <g id="Image" transform="translate(42 -60)">
    <g id="folder-open-svgrepo-com" transform="translate(-42 60)">
      <rect id="Rectangle_1" data-name="Rectangle 1" width="512" height="512" fill="#fff"/>
      <path id="Path_1" data-name="Path 1" d="M387.109,110.7V68.018a21.339,21.339,0,0,0-21.339-21.339H152.376L131.036,4H24.339L7.506,37.667A42.678,42.678,0,0,0,3,56.754V110.7" transform="translate(61.018 81.358)" fill="#5f8bb6"/>
      <path id="Path_2" data-name="Path 2" d="M40.9,243.733H386.03a21.339,21.339,0,0,0,21.252-19.408l17.46-192.054A21.34,21.34,0,0,0,403.49,9H23.436A21.339,21.339,0,0,0,2.184,32.271L19.644,224.325A21.34,21.34,0,0,0,40.9,243.733Z" transform="translate(42.61 183.054)" fill="#70b2e8"/>
    </g>
    <path id="image-gallery-svgrepo-com" d="M82.056,11.814a3.866,3.866,0,0,0-1.618.352L6.493,45.806A11.331,11.331,0,0,0,1.125,61L49.666,161.689c2.711,5.611,9.69,8.361,15.37,5.189l26.74-14.9c4.595-2.329.344-9.221-3.8-6.822L61.223,160.048a3.378,3.378,0,0,1-4.532-1.75l-3.235-6.7,14.73-7.369c4.728-2.376.609-9.064-3.516-6.986l-14.612,7.306L8.165,57.6a3.419,3.419,0,0,1,1.563-4.688l73.953-33.64c3.79-1.735,2.243-7.462-1.618-7.462ZM119.384,4a11.747,11.747,0,0,0-4.313.813,11.459,11.459,0,0,0-6.329,6.056L63.474,114.57a11.517,11.517,0,0,0,5.915,15.081l103.748,45.3a11.517,11.517,0,0,0,15.081-5.915L233.5,65.286A11.527,11.527,0,0,0,227.562,50.2L123.838,4.938A11.172,11.172,0,0,0,119.384,4Zm-.117,7.767a3.851,3.851,0,0,1,1.43.336L224.452,57.386a3.544,3.544,0,0,1,1.86,4.79L188.648,148.5,78.234,100.317l37.68-86.346a3.565,3.565,0,0,1,3.36-2.2ZM75.1,107.475l110.414,48.2-4.47,10.26a3.55,3.55,0,0,1-4.79,1.875L72.5,122.525a3.562,3.562,0,0,1-1.875-4.806ZM58.613,97.769a3.806,3.806,0,0,0-3.712,2.672l-7.814,23.442c-1.516,4.556,5.728,7.556,7.423,2.469l7.814-23.442a3.9,3.9,0,0,0-3.712-5.142ZM128.94,74.327a4.08,4.08,0,0,0-1.743.414L95.941,90.369c-4.657,2.086-.727,9.3,3.485,6.986L127.6,83.274l13.722,20.567a3.913,3.913,0,0,0,5,1.328l28.162-14.081L188.2,111.655c2.751,4.274,9.3-.258,6.5-4.329L179.076,83.884a3.913,3.913,0,0,0-5-1.328L145.913,96.636,132.191,76.07a3.785,3.785,0,0,0-3.251-1.743Zm3.907-39.071a15.628,15.628,0,1,0,15.628,15.628A15.674,15.674,0,0,0,132.847,35.256Zm0,7.814a7.814,7.814,0,1,1-7.814,7.814A7.709,7.709,0,0,1,132.847,43.071ZM46.892,58.7A15.628,15.628,0,1,0,62.52,74.327,15.674,15.674,0,0,0,46.892,58.7Zm0,7.814a7.814,7.814,0,1,1-7.814,7.814A7.709,7.709,0,0,1,46.892,66.513Z" transform="translate(104.001 282.11)" fill="#fff"/>
  </g>
</svg>
