<svg xmlns="http://www.w3.org/2000/svg" width="512" height="512" viewBox="0 0 512 512">
  <g id="Music" transform="translate(42 -60)">
    <g id="folder-open-svgrepo-com" transform="translate(-42 60)">
      <rect id="Rectangle_1" data-name="Rectangle 1" width="512" height="512" fill="#fff"/>
      <path id="Path_1" data-name="Path 1" d="M387.109,110.7V68.018a21.339,21.339,0,0,0-21.339-21.339H152.376L131.036,4H24.339L7.506,37.667A42.678,42.678,0,0,0,3,56.754V110.7" transform="translate(61.018 81.358)" fill="#5f8bb6"/>
      <path id="Path_2" data-name="Path 2" d="M40.9,243.733H386.03a21.339,21.339,0,0,0,21.252-19.408l17.46-192.054A21.34,21.34,0,0,0,403.49,9H23.436A21.339,21.339,0,0,0,2.184,32.271L19.644,224.325A21.34,21.34,0,0,0,40.9,243.733Z" transform="translate(42.61 183.054)" fill="#70b2e8"/>
    </g>
    <g id="Page-1" transform="translate(117.526 304.033)">
      <g id="Icon-Set-Filled" transform="translate(-0.013 -0.033)">
        <path id="music-note-3" d="M721.782,622.13c-.7.24-83.206,19.578-83.206,19.578-2.706.661-4.894,2.193-4.894,4.895v68.533c-10.283-6.686-26.812-6.676-41.554,1.165-18.614,9.9-27.164,28.344-19.108,41.207s29.68,15.256,48.289,5.36c12-6.383,20.278-18.467,22.162-28.163.328-.661,0-84.357,0-84.357l73.418-17.278v62.488c-10.283-6.686-26.812-6.676-41.554,1.165-18.614,9.9-27.164,28.344-19.108,41.207s29.68,15.256,48.289,5.36c12-6.382,20.278-18.467,22.162-28.163v-88.1c0-2.706-2.188-5.81-4.895-4.894" transform="translate(-569.987 -621.967)" fill="#fff" fill-rule="evenodd"/>
      </g>
    </g>
  </g>
</svg>
