<svg xmlns="http://www.w3.org/2000/svg" width="512" height="512" viewBox="0 0 512 512">
  <g id="Video" transform="translate(42 -60)">
    <g id="folder-open-svgrepo-com" transform="translate(-42 60)">
      <rect id="Rectangle_1" data-name="Rectangle 1" width="512" height="512" fill="#fff"/>
      <path id="Path_1" data-name="Path 1" d="M387.109,110.7V68.018a21.339,21.339,0,0,0-21.339-21.339H152.376L131.036,4H24.339L7.506,37.667A42.678,42.678,0,0,0,3,56.754V110.7" transform="translate(61.018 81.358)" fill="#5f8bb6"/>
      <path id="Path_2" data-name="Path 2" d="M40.9,243.733H386.03a21.339,21.339,0,0,0,21.252-19.408l17.46-192.054A21.34,21.34,0,0,0,403.49,9H23.436A21.339,21.339,0,0,0,2.184,32.271L19.644,224.325A21.34,21.34,0,0,0,40.9,243.733Z" transform="translate(42.61 183.054)" fill="#70b2e8"/>
    </g>
    <path id="video-svgrepo-com" d="M181.75,61l35.431-21.259c10.905-6.543,16.358-9.815,20.845-9.4a13.749,13.749,0,0,1,9.807,5.553c2.668,3.632,2.668,9.991,2.668,22.709v59.788c0,12.717,0,19.077-2.668,22.71a13.749,13.749,0,0,1-9.807,5.552c-4.487.418-9.94-2.853-20.845-9.4L181.75,116M47,171h90.75c15.4,0,23.1,0,28.985-3a27.5,27.5,0,0,0,12.018-12.017c3-5.882,3-13.584,3-28.985V50c0-15.4,0-23.1-3-28.985A27.5,27.5,0,0,0,166.735,9c-5.882-3-13.584-3-28.985-3H47C31.6,6,23.9,6,18.015,9A27.5,27.5,0,0,0,6,21.015C3,26.9,3,34.6,3,50v77c0,15.4,0,23.1,3,28.985A27.5,27.5,0,0,0,18.015,168C23.9,171,31.6,171,47,171Z" transform="translate(87.5 281)" fill="none" stroke="#fff" stroke-linecap="round" stroke-linejoin="round" stroke-width="2"/>
  </g>
</svg>
